HIERARCHY
ROOT Hips
{
	OFFSET 0.000000 0.000000 0.000000
	CHANNELS 6 Xposition Yposition Zposition Zrotation Yrotation Xrotation 
	JOINT LHipJoint
	{
		OFFSET 0.000000 0.000000 0.000000
		CHANNELS 3 Zrotation Yrotation Xrotation
		JOINT LeftUpLeg
		{
			OFFSET 1.363060 -1.794630 0.839290
			CHANNELS 3 Zrotation Yrotation Xrotation
			JOINT LeftLeg
			{
				OFFSET 2.448110 -6.726130 0.000000
				CHANNELS 3 Zrotation Yrotation Xrotation
				JOINT LeftFoot
				{
					OFFSET 2.562200 -7.039590 0.000000
					CHANNELS 3 Zrotation Yrotation Xrotation
					JOINT LeftToeBase
					{
						OFFSET 0.157640 -0.433110 2.322550
						CHANNELS 3 Zrotation Yrotation Xrotation
						End Site
						{
							OFFSET 0.000000 0.000000 0.000000
						}
					}
				}
			}
		}
	}
	JOINT RHipJoint
	{
		OFFSET 0.000000 0.000000 0.000000
		CHANNELS 3 Zrotation Yrotation Xrotation
		JOINT RightUpLeg
		{
			OFFSET -1.305520 -1.794630 0.839290
			CHANNELS 3 Zrotation Yrotation Xrotation
			JOINT RightLeg
			{
				OFFSET -2.542530 -6.985550 0.000000
				CHANNELS 3 Zrotation Yrotation Xrotation
				JOINT RightFoot
				{
					OFFSET -2.568260 -7.056230 0.000000
					CHANNELS 3 Zrotation Yrotation Xrotation
					JOINT RightToeBase
					{
						OFFSET -0.164730 -0.452590 2.363150
						CHANNELS 3 Zrotation Yrotation Xrotation
						End Site
						{
							OFFSET 0.000000 0.000000 0.000000
						}
					}
				}
			}
		}
	}
	JOINT LowerBack
	{
		OFFSET 0.000000 0.000000 0.000000
		CHANNELS 3 Zrotation Yrotation Xrotation
		JOINT Spine
		{
			OFFSET 0.028270 2.035590 -0.193380
			CHANNELS 3 Zrotation Yrotation Xrotation
			JOINT Spine1
			{
				OFFSET 0.056720 2.048850 -0.042750
				CHANNELS 3 Zrotation Yrotation Xrotation
				JOINT Neck
				{
					OFFSET 0.000000 0.000000 0.000000
					CHANNELS 3 Zrotation Yrotation Xrotation
					JOINT Neck1
					{
						OFFSET -0.054170 1.746240 0.172020
						CHANNELS 3 Zrotation Yrotation Xrotation
						JOINT Head
						{
							OFFSET 0.104070 1.761360 -0.123970
							CHANNELS 3 Zrotation Yrotation Xrotation
							End Site
							{
								OFFSET 0.000000 0.000000 0.000000
							}
						}
					}
				}
				JOINT LeftShoulder
				{
					OFFSET 0.000000 0.000000 0.000000
					CHANNELS 3 Zrotation Yrotation Xrotation
					JOINT LeftArm
					{
						OFFSET 3.362410 1.200890 -0.311210
						CHANNELS 3 Zrotation Yrotation Xrotation
						JOINT LeftForeArm
						{
							OFFSET 4.983000 -0.000000 -0.000000
							CHANNELS 3 Zrotation Yrotation Xrotation
							JOINT LeftHand
							{
								OFFSET 3.483560 -0.000000 -0.000000
								CHANNELS 3 Zrotation Yrotation Xrotation
								JOINT LeftFingerBase
								{
									OFFSET 0.000000 0.000000 0.000000
									CHANNELS 3 Zrotation Yrotation Xrotation
									JOINT LeftHandIndex1
									{
										OFFSET 0.715260 -0.000000 -0.000000
										CHANNELS 3 Zrotation Yrotation Xrotation
										End Site
										{
											OFFSET 0.000000 0.000000 0.000000
										}
									}
								}
								JOINT LThumb
								{
									OFFSET 0.000000 0.000000 0.000000
									CHANNELS 3 Zrotation Yrotation Xrotation
									End Site
									{
										OFFSET 0.000000 0.000000 0.000000
									}
								}
							}
						}
					}
				}
				JOINT RightShoulder
				{
					OFFSET 0.000000 0.000000 0.000000
					CHANNELS 3 Zrotation Yrotation Xrotation
					JOINT RightArm
					{
						OFFSET -3.136600 1.374050 -0.404650
						CHANNELS 3 Zrotation Yrotation Xrotation
						JOINT RightForeArm
						{
							OFFSET -5.241900 -0.000000 -0.000000
							CHANNELS 3 Zrotation Yrotation Xrotation
							JOINT RightHand
							{
								OFFSET -3.444170 -0.000000 -0.000000
								CHANNELS 3 Zrotation Yrotation Xrotation
								JOINT RightFingerBase
								{
									OFFSET 0.000000 0.000000 0.000000
									CHANNELS 3 Zrotation Yrotation Xrotation
									JOINT RightHandIndex1
									{
										OFFSET -0.622530 -0.000000 -0.000000
										CHANNELS 3 Zrotation Yrotation Xrotation
										End Site
										{
											OFFSET 0.000000 0.000000 0.000000
										}
									}
								}
								JOINT RThumb
								{
									OFFSET 0.000000 0.000000 0.000000
									CHANNELS 3 Zrotation Yrotation Xrotation
									End Site
									{
										OFFSET 0.000000 0.000000 0.000000
									}
								}
							}
						}
					}
				}
			}
		}
	}
}
MOTION
Frames: 6
Frame Time: 0.008333
-0.532395 18.319238 5.518454 -2.007320 -4.444015 1.018896 1.634994 4.059399 3.869931 -13.870912 -9.254811 -4.432790 0.791363 6.620785 22.389567 -1.180369 10.180879 -18.135259 7.993200 -16.114300 -52.538200 -3.322888 -4.287991 2.732632 3.201653 1.832702 -1.421272 -0.025022 0.743912 1.396658 0.304532 -0.736984 5.419917 0.000000 0.000000 0.000000 1.657087 1.464042 -8.784793 1.469060 0.628284 26.498424 -2.011922 1.192160 -13.841883 -3.151632 -3.250090 -26.621090 4.326037 -3.797799 37.114964 0.898700 -1.032100 11.790900 3.134692 -6.940299 0.013031 -92.144577 6.469073 30.663078 23.573237 -32.811737 -6.231824 0.855338 0.118687 3.567776 17.515218 -32.200662 -9.152400 -7.125000 0.000000 0.000000 -8.564000 -3.362600 9.152100 -5.236170 9.033180 2.549928 93.802265 -9.402434 21.889998 -31.791328 40.150070 -9.442910 0.531594 -3.364832 21.930003 -7.740997 -38.736331 5.628900 7.125000 0.000000 0.000000 29.583700 -63.573400 -13.931900 
-0.531122 18.319238 5.517083 -1.976323 -4.421364 0.990119 1.621078 4.060200 3.877212 -13.892211 -9.226954 -4.439405 0.796028 6.627555 22.410396 -1.180261 10.168273 -18.100335 7.998600 -16.118300 -52.557800 -3.336602 -4.291272 2.735320 3.198006 1.833885 -1.418694 -0.024751 0.745902 1.397394 0.305119 -0.734889 5.420364 0.000000 0.000000 0.000000 1.712532 1.464046 -8.829117 1.327137 0.640192 26.572400 -1.988223 1.189654 -13.830194 -3.141726 -3.254978 -26.650211 4.408024 -3.832186 37.084939 0.913100 -1.034200 11.795000 3.167488 -6.937053 0.007990 -92.122796 6.429717 30.653886 23.554303 -32.793668 -6.221973 0.855158 0.117176 3.597522 17.451457 -32.188238 -9.112600 -7.125000 0.000000 0.000000 -8.598000 -3.336800 9.185500 -5.229200 9.027671 2.539962 93.835479 -9.355634 21.884337 -31.779010 40.155433 -9.445201 0.530859 -3.368596 21.934873 -7.705195 -38.845707 5.622900 7.125000 0.000000 0.000000 29.740700 -63.654500 -14.068700 
-0.530632 18.319728 5.514830 -1.991957 -4.399023 0.991888 1.629343 4.062253 3.877191 -13.869883 -9.147153 -4.499238 0.801540 6.632099 22.424643 -1.180205 10.132923 -18.008326 8.000800 -16.119900 -52.565600 -3.329962 -4.291004 2.738851 3.198548 1.833959 -1.418611 -0.024901 0.746007 1.397398 0.305124 -0.734863 5.420569 0.000000 0.000000 0.000000 1.704445 1.450089 -8.859830 1.386209 0.614477 26.590177 -2.004439 1.178134 -13.815816 -3.133860 -3.252731 -26.654352 4.385405 -3.824111 37.062779 0.907200 -1.034000 11.791400 3.163972 -6.936186 0.005376 -92.136443 6.408939 30.597698 23.529646 -32.767676 -6.210709 0.855342 0.112868 3.684967 17.414482 -32.230696 -9.100900 -7.125000 0.000000 0.000000 -8.623400 -3.369300 9.217900 -5.238808 9.024311 2.537604 93.808013 -9.327513 21.952819 -31.796666 40.175659 -9.460333 0.535264 -3.371441 21.839599 -7.652761 -38.999660 5.612500 7.125000 0.000000 0.000000 29.968000 -63.768300 -14.265400 
-0.531415 18.319826 5.511109 -2.005384 -4.371672 1.049177 1.635607 4.049025 3.838068 -13.840600 -9.085196 -4.574087 0.803385 6.640950 22.428745 -1.174117 10.081448 -17.929748 8.009700 -16.126400 -52.597800 -3.330679 -4.276292 2.701423 3.205915 1.830485 -1.426130 -0.024919 0.740019 1.395661 0.303403 -0.740586 5.418144 0.000000 0.000000 0.000000 1.725563 1.442726 -8.596734 1.415321 0.621503 26.127766 -2.036177 1.168031 -13.885827 -3.177788 -3.256779 -26.554815 4.433020 -3.837967 37.218740 0.923500 -1.032400 11.779900 3.094606 -6.952664 0.043530 -92.098833 6.579055 30.599230 23.517304 -32.732030 -6.202748 0.855313 0.109450 3.730324 17.423173 -32.285906 -9.118800 -7.125000 0.000000 0.000000 -8.624700 -3.423500 9.227000 -5.159668 9.045494 2.582763 93.784449 -9.484579 21.959374 -31.825575 40.165575 -9.469266 0.538059 -3.369023 21.768081 -7.632577 -39.055862 5.607000 7.125000 0.000000 0.000000 30.057700 -63.811000 -14.341800 
-0.531317 18.319532 5.507877 -1.917425 -4.360294 1.139160 1.582666 4.011765 3.760635 -13.878372 -9.106382 -4.605616 0.799773 6.662696 22.434223 -1.168996 10.067510 -17.926240 8.012000 -16.128100 -52.605800 -3.395618 -4.249736 2.603133 3.211337 1.825417 -1.438438 -0.023621 0.730629 1.393623 0.300831 -0.748625 5.412541 0.000000 0.000000 0.000000 1.992145 1.487964 -7.995635 0.869963 0.776752 25.138850 -1.988896 1.185070 -14.036930 -3.216036 -3.300478 -26.392955 4.668668 -3.977748 37.600687 0.968000 -1.052400 11.782400 3.025431 -6.990088 0.132856 -91.933278 6.950852 30.700338 23.529882 -32.697827 -6.202026 0.854545 0.110224 3.704082 17.444052 -32.278391 -9.129400 -7.125000 0.000000 0.000000 -8.611800 -3.420300 9.212400 -4.919031 9.089316 2.674504 93.883962 -9.825632 21.783955 -31.854304 40.127852 -9.468583 0.534437 -3.361587 21.835551 -7.652804 -38.961652 5.605500 7.125000 0.000000 0.000000 29.940300 -63.742700 -14.233200 
-0.529848 18.319238 5.505918 -1.852201 -4.368936 1.151364 1.539582 3.992375 3.721829 -13.910616 -9.095878 -4.593431 0.799105 6.677475 22.444892 -1.160606 10.045135 -17.940386 8.001500 -16.120400 -52.568200 -3.444971 -4.235426 2.545587 3.211320 1.823675 -1.444091 -0.022630 0.726781 1.393151 0.299834 -0.751510 5.409513 0.000000 0.000000 0.000000 2.222974 1.527931 -7.638749 0.439773 0.893244 24.618261 -1.955340 1.201359 -14.127773 -3.202119 -3.346235 -26.328315 4.746411 -4.079370 37.794707 0.968500 -1.080800 11.786200 3.008653 -7.010664 0.182299 -91.840748 7.148801 30.752268 23.537421 -32.685490 -6.202337 0.853904 0.111175 3.694697 17.446988 -32.256809 -9.126300 -7.125000 0.000000 0.000000 -8.607400 -3.400000 9.204700 -4.780172 9.105795 2.720405 93.978240 -9.984955 21.634105 -31.872701 40.118060 -9.470920 0.533359 -3.357857 21.916561 -7.617511 -38.898137 5.577700 7.125000 0.000000 0.000000 29.911000 -63.685800 -14.178400 
